<?xml version="1.0" encoding="utf-8"?>
<!-- Generator: Adobe Illustrator 15.1.0, SVG Export Plug-In . SVG Version: 6.00 Build 0)  -->
<!DOCTYPE svg PUBLIC "-//W3C//DTD SVG 1.1//EN" "http://www.w3.org/Graphics/SVG/1.1/DTD/svg11.dtd">
<svg version="1.1" id="Layer_1" xmlns="http://www.w3.org/2000/svg" xmlns:xlink="http://www.w3.org/1999/xlink" x="0px" y="0px"
	 width="144.527px" height="142.781px" viewBox="0 0 144.527 142.781" enable-background="new 0 0 144.527 142.781"
	 xml:space="preserve">
<g>
	<g>
		<path fill="#FFFFFF" d="M101.885,85.983l-5.31,4.83c-1.115,1.013-2.786,1.068-3.968,0.138l-4.107-3.266
			c-0.377,0.155-0.763,0.298-1.144,0.432l-0.951,5.156c-0.264,1.425-1.621,2.541-3.077,2.511l-7.175-0.146
			c-1.428-0.031-2.665-1.07-2.943-2.471l-1.097-5.511c-0.733-0.299-1.453-0.639-2.152-1.016l-4.903,2.819
			c-1.265,0.722-2.824,0.473-3.798-0.601l-4.828-5.313c-1.016-1.121-1.069-2.789-0.132-3.967l3.55-4.471
			c-0.213-0.567-0.403-1.148-0.57-1.732l-5.705-1.668c-1.372-0.398-2.295-1.723-2.199-3.146l0.494-7.167
			c0.089-1.448,1.307-2.705,2.77-2.842l5.872-0.551c0.104-0.216,0.212-0.426,0.324-0.64l-3.241-4.923
			c-0.82-1.266-0.606-2.92,0.51-3.935l5.31-4.83c1.058-0.961,2.671-1.061,3.834-0.23l4.996,3.538c0.2-0.078,0.398-0.164,0.603-0.238
			l1.43-5.934c0.332-1.363,1.643-2.378,3.045-2.351l7.178,0.145c1.513,0.029,2.764,1.139,2.971,2.64l0.81,5.68
			c0.595,0.229,1.179,0.485,1.75,0.771l4.794-3.113c1.263-0.821,2.92-0.606,3.931,0.509l4.829,5.312
			c0.962,1.06,1.062,2.675,0.229,3.838l-3.275,4.612c0.284,0.66,0.524,1.332,0.738,2.008l5.286,1.24
			c1.467,0.343,2.458,1.688,2.356,3.188l-0.49,7.164c-0.094,1.406-1.218,2.616-2.606,2.824l-5.375,0.803
			c-0.202,0.467-0.425,0.93-0.67,1.395l2.71,4.709C103.194,83.424,102.944,85.02,101.885,85.983L101.885,85.983z M94.495,87.916
			l4.728-4.297l-3.018-5.241c-0.313-0.551-0.313-1.229,0.002-1.776c0.521-0.889,0.966-1.798,1.323-2.745
			c0.229-0.604,0.764-1.033,1.398-1.125l5.988-0.896l0.438-6.37l-5.903-1.381c-0.644-0.155-1.149-0.646-1.313-1.29
			c-0.289-1.138-0.701-2.271-1.228-3.367c-0.277-0.583-0.22-1.264,0.153-1.789l3.638-5.127l-4.295-4.727l-5.317,3.451
			c-0.551,0.355-1.253,0.378-1.826,0.063c-1.025-0.568-2.05-1.021-3.145-1.377c-0.639-0.212-1.108-0.766-1.199-1.435l-0.904-6.343
			l-6.39-0.125l-1.444,6.001c0.005,0.084,0.002,0.167-0.005,0.247c-0.074,0.702-0.565,1.299-1.242,1.506
			c-0.756,0.232-1.488,0.545-2.213,0.882c-0.684,0.313-1.488,0.16-2.014-0.377l-5.198-3.725l-4.725,4.298l3.496,5.382l-0.059,0.038
			c0.325,0.594,0.507,1.4,0.207,1.917c-0.412,0.716-0.803,1.437-1.108,2.192c-0.278,0.668-0.921,1.104-1.642,1.104
			c-0.064,0.001-0.136-0.005-0.204-0.014l-6.103,0.574l-0.437,6.37l6.034,1.761c0.063,0.013,0.13,0.021,0.19,0.041
			c0.647,0.16,1.15,0.671,1.299,1.317c0.251,1.075,0.604,2.139,1.046,3.159c0.261,0.599,0.167,1.295-0.24,1.81l-3.939,4.964
			l4.294,4.728l5.451-3.135c0.556-0.318,1.245-0.313,1.798,0.021c1.073,0.649,2.21,1.185,3.376,1.593
			c0.59,0.209,1.03,0.718,1.15,1.329l1.209,6.099l6.387,0.133l1.072-5.81c0.119-0.662,0.613-1.205,1.261-1.386
			c0.925-0.261,1.817-0.604,2.702-1.011c0.606-0.28,1.316-0.195,1.843,0.218L94.495,87.916z M87.523,74.967
			c-4.271,3.885-10.903,3.569-14.787-0.7c-3.885-4.271-3.57-10.906,0.699-14.788c4.271-3.888,10.903-3.57,14.791,0.701
			C92.113,64.445,91.8,71.084,87.523,74.967L87.523,74.967z M75.819,62.098c-2.825,2.567-3.033,6.96-0.463,9.784
			c2.569,2.826,6.96,3.033,9.785,0.466c2.825-2.571,3.035-6.963,0.466-9.788C83.035,59.735,78.646,59.527,75.819,62.098
			L75.819,62.098z"/>
	</g>
	<path fill="#FFFFFF" d="M104.535,4.815c-0.664,0.606-1.284,1.255-1.842,1.929C76.755-2.961,46.483,4.912,28.866,28.09
		c-2.856,3.755-5.229,7.732-7.152,11.84c-5.438-0.955-11.257,0.533-15.662,4.54c-7.56,6.876-8.11,18.583-1.233,26.144
		c3.148,3.455,7.307,5.453,11.622,5.938c2.384,16.031,10.781,31.194,24.712,41.784c13.546,10.3,29.861,14.402,45.555,12.784
		c0.802,2.002,1.964,3.91,3.51,5.604c6.884,7.565,18.592,8.118,26.148,1.24c6.014-5.468,7.6-13.985,4.542-21.062
		c3.83-3.136,7.362-6.752,10.493-10.866c17.64-23.197,17.114-54.517,0.755-76.918c4.866-6.933,4.463-16.54-1.471-23.063
		C123.808-1.503,112.094-2.063,104.535,4.815z M8.494,67.215c-5.027-5.52-4.619-14.059,0.907-19.08
		c5.512-5.022,14.051-4.612,19.074,0.899c5.021,5.525,4.618,14.073-0.901,19.087C22.05,73.142,13.51,72.733,8.494,67.215z
		 M112.973,134.232c-5.52,5.028-14.06,4.619-19.087-0.9c-5.017-5.518-4.612-14.063,0.914-19.085
		c5.518-5.016,14.057-4.604,19.079,0.905C118.9,120.677,118.491,129.217,112.973,134.232z M127.771,103.283
		c-2.761,3.622-5.861,6.852-9.207,9.661c-0.308-0.382-0.621-0.758-0.957-1.129c-6.876-7.56-18.591-8.118-26.157-1.235
		c-4.645,4.221-6.644,10.281-5.896,16.07c-14.367,1.317-29.251-2.521-41.647-11.943c-12.761-9.705-20.525-23.534-22.859-38.212
		c3.579-0.488,7.047-2.03,9.922-4.642c7.559-6.877,8.117-18.591,1.234-26.157c-1.758-1.934-3.834-3.403-6.08-4.407
		c1.725-3.629,3.833-7.125,6.366-10.439c16.183-21.291,43.83-28.69,67.722-20.154c-3.057,6.556-2.087,14.58,3.084,20.268
		c6.753,7.428,18.166,8.095,25.728,1.608C143.677,53.322,143.963,81.973,127.771,103.283z M126.052,28.473
		c-5.519,5.015-14.061,4.618-19.081-0.907c-5.017-5.519-4.619-14.059,0.906-19.08c5.519-5.016,14.06-4.619,19.074,0.897
		C131.972,14.91,131.568,23.458,126.052,28.473z"/>
</g>
</svg>
