<?xml version="1.0" encoding="UTF-8"?>
<!-- Generator: Adobe Illustrator 15.1.0, SVG Export Plug-In . SVG Version: 6.00 Build 0)  -->
<!DOCTYPE svg PUBLIC "-//W3C//DTD SVG 1.1//EN" "http://www.w3.org/Graphics/SVG/1.1/DTD/svg11.dtd">
<svg version="1.1" id="Layer_1" xmlns="http://www.w3.org/2000/svg" xmlns:xlink="http://www.w3.org/1999/xlink" x="0px" y="0px" width="59.98px" height="59.926px" viewBox="0 0 59.98 59.926" enable-background="new 0 0 59.98 59.926" xml:space="preserve">
<g>
	<g>
		<path fill="#FFFFFF" d="M0.622,14.166C0.25,14.297,0,14.649,0,15.047v41.976c0,0.306,0.149,0.589,0.397,0.764    c0.16,0.113,0.347,0.172,0.537,0.172c0.106,0,0.212-0.018,0.315-0.053l13.707-4.876l13.71,4.876    c0.001,0.001,0.005,0.001,0.006,0.001c0.045,0.017,0.093,0.028,0.14,0.035c0.005,0.003,0.014,0.003,0.021,0.004    c0.048,0.008,0.097,0.015,0.145,0.015c0.05,0,0.098-0.007,0.146-0.015c0.006-0.001,0.015-0.001,0.021-0.004    c0.047-0.007,0.094-0.018,0.139-0.035c0.001,0,0.003,0,0.006-0.001L43,53.03l13.708,4.876c0.287,0.102,0.604,0.058,0.854-0.118    c0.246-0.176,0.396-0.459,0.396-0.764V15.049c0-0.398-0.248-0.749-0.62-0.881L43.313,9.182c-0.004-0.002-0.005-0.002-0.009-0.002    c-0.046-0.017-0.09-0.029-0.14-0.039c-0.007,0-0.015-0.001-0.018-0.001c-0.049-0.007-0.098-0.013-0.146-0.013    c-0.05,0-0.1,0.006-0.146,0.013c-0.007,0-0.015,0.001-0.021,0.001c-0.05,0.012-0.095,0.022-0.139,0.039    c-0.002,0-0.007,0-0.009,0.002l-4.736,1.684c-0.484,0.174-0.738,0.707-0.564,1.194c0.174,0.487,0.707,0.741,1.194,0.565    l3.487-1.239v3.661c0,0.516,0.419,0.933,0.935,0.933c0.517,0,0.936-0.417,0.936-0.933v-3.661l12.15,4.321V55.7l-12.152-4.323    V18.786c0-0.516-0.42-0.935-0.935-0.935c-0.517,0-0.936,0.419-0.936,0.935v32.59l-12.152,4.322V32.774    c0-0.514-0.419-0.932-0.935-0.932s-0.934,0.418-0.934,0.932v22.923l-12.153-4.322V32.774c0-0.516-0.419-0.935-0.935-0.935    s-0.936,0.419-0.936,0.935v18.604L1.869,55.698V15.706l3.945-1.401c0.487-0.175,0.74-0.708,0.568-1.195    c-0.174-0.488-0.708-0.741-1.195-0.568L0.622,14.166L0.622,14.166z"/>
	</g>
	<path fill="#FFFFFF" d="M23.777,33.855c0.121-0.098,2.973-2.455,5.866-6.105c3.931-4.968,5.924-9.728,5.924-14.149   c0-7.5-6.1-13.6-13.599-13.6C14.47,0,8.37,6.1,8.37,13.6c0,4.421,1.993,9.181,5.926,14.15c2.89,3.651,5.743,6.008,5.863,6.105   c0.491,0.402,1.133,0.626,1.809,0.626C22.645,34.481,23.289,34.257,23.777,33.855L23.777,33.855z M21.968,1.87   c6.47,0,11.731,5.263,11.731,11.73c0,9.586-10.998,18.719-11.105,18.812c-0.155,0.125-0.384,0.197-0.626,0.197   c-0.241,0-0.467-0.072-0.622-0.197C21.234,32.32,10.239,23.175,10.239,13.6C10.238,7.132,15.5,1.87,21.968,1.87L21.968,1.87z"/>
	<path fill="#FFFFFF" d="M14.662,13.6c0,4.028,3.277,7.307,7.305,7.307c4.03,0,7.308-3.279,7.308-7.307   c0-4.03-3.276-7.306-7.308-7.306C17.939,6.294,14.662,9.57,14.662,13.6L14.662,13.6z M27.405,13.6c0,2.996-2.439,5.436-5.438,5.436   c-2.996,0-5.436-2.44-5.436-5.436c0-2.999,2.44-5.437,5.436-5.437C24.967,8.163,27.405,10.601,27.405,13.6L27.405,13.6z"/>
</g>
</svg>