<?xml version="1.0" encoding="utf-8"?>
<!-- Generator: Adobe Illustrator 15.1.0, SVG Export Plug-In . SVG Version: 6.00 Build 0)  -->
<!DOCTYPE svg PUBLIC "-//W3C//DTD SVG 1.1//EN" "http://www.w3.org/Graphics/SVG/1.1/DTD/svg11.dtd">
<svg version="1.1" id="Layer_1" xmlns="http://www.w3.org/2000/svg" xmlns:xlink="http://www.w3.org/1999/xlink" x="0px" y="0px"
	 width="125.291px" height="145.078px" viewBox="0 0 125.291 145.078" enable-background="new 0 0 125.291 145.078"
	 xml:space="preserve">
<g>
	<g>
		<g>
			<path fill="#FFFFFF" d="M83.872,79.342c-1.252,0-2.268,1.014-2.268,2.266v40.803H4.534V22.668h24.935
				c1.251,0,2.267-1.016,2.267-2.267c0-1.252-1.016-2.268-2.267-2.268H4.534v-2.268c0-6.249,5.084-11.333,11.334-11.333h54.402
				c1.252,0,2.268-1.016,2.268-2.269c0-1.25-1.016-2.266-2.268-2.266H15.868C7.118,0,0,7.118,0,15.867v113.341
				c0,8.75,7.118,15.869,15.868,15.869h54.402c8.75,0,15.869-7.119,15.869-15.869V81.605C86.14,80.354,85.125,79.342,83.872,79.342
				L83.872,79.342z M70.271,140.542H15.868c-6.25,0-11.334-5.084-11.334-11.334v-2.269h77.07v2.269
				C81.604,135.458,76.521,140.542,70.271,140.542L70.271,140.542z"/>
			<path fill="#FFFFFF" d="M47.603,131.477h-9.066c-1.252,0-2.268,1.016-2.268,2.268s1.016,2.266,2.268,2.266h9.066
				c1.253,0,2.268-1.014,2.268-2.266C49.87,132.492,48.855,131.477,47.603,131.477L47.603,131.477z"/>
			<path fill="#FFFFFF" d="M27.864,9.73c-0.422,0.422-0.662,1.009-0.662,1.604s0.24,1.181,0.662,1.604
				c0.422,0.422,1.007,0.663,1.604,0.663c0.597,0,1.181-0.241,1.604-0.663c0.423-0.423,0.663-1.006,0.663-1.604
				s-0.24-1.182-0.663-1.604c-0.423-0.423-1.006-0.662-1.604-0.662C28.87,9.068,28.286,9.308,27.864,9.73L27.864,9.73z"/>
		</g>
		<g>
			<g>
				<path fill="#FFFFFF" d="M123.489,7.546h-5.41c-2.107,0-3.109,1.104-3.51,1.8c-0.398,0.706-0.5,1.3-0.5,1.707l-0.799,4.112H46.11
					c-1.4,0-2.403,0.399-3.109,1.206c-0.603,0.706-0.899,1.606-0.797,2.608v0.204l7.518,31.177c0.398,1.708,1.902,3.61,4.612,3.61
					h50.825l-1.401,6.915c-0.706-0.205-1.401-0.298-2.106-0.298c-4.215,0-7.723,2.905-8.521,6.916H66.056
					c-0.896-3.908-4.306-6.916-8.52-6.916c-4.809,0-8.725,3.908-8.725,8.726c0,4.808,3.908,8.724,8.725,8.724
					c4.214,0,7.722-2.902,8.52-6.914h26.963c0.9,3.908,4.309,6.914,8.521,6.914c4.809,0,8.725-3.906,8.725-8.724
					c0-2.71-1.207-5.114-3.108-6.72l2.804-13.736l6.721-31.678l1.002-5.811v-0.204c0,0,0.203-0.102,0.398-0.102h5.41
					c1.004,0,1.801-0.799,1.801-1.802C125.3,8.353,124.492,7.546,123.489,7.546L123.489,7.546z M57.536,74.512
					c-2.803,0-5.012-2.209-5.012-5.013s2.208-5.012,5.012-5.012c2.803,0,5.012,2.209,5.012,5.012
					C62.548,72.199,60.339,74.512,57.536,74.512L57.536,74.512z M101.54,74.512c-2.805,0-5.014-2.209-5.014-5.013
					s2.209-5.012,5.014-5.012c2.803,0,5.012,2.209,5.012,5.012C106.552,72.199,104.353,74.512,101.54,74.512L101.54,74.512z
					 M46.11,18.878h66.456l-1.399,6.72H47.614l-1.605-6.617v-0.103H46.11z M53.321,49.545l-4.909-20.253h61.853l-4.408,20.754
					c-0.104,0.296-0.502,0.296-0.604,0.296H54.427C53.823,50.351,53.526,50.046,53.321,49.545L53.321,49.545z"/>
			</g>
		</g>
	</g>
</g>
</svg>
