<?xml version="1.0" encoding="utf-8"?>
<!-- Generator: Adobe Illustrator 15.1.0, SVG Export Plug-In . SVG Version: 6.00 Build 0)  -->
<!DOCTYPE svg PUBLIC "-//W3C//DTD SVG 1.1//EN" "http://www.w3.org/Graphics/SVG/1.1/DTD/svg11.dtd">
<svg version="1.1" id="Layer_1" xmlns="http://www.w3.org/2000/svg" xmlns:xlink="http://www.w3.org/1999/xlink" x="0px" y="0px"
	 width="145.066px" height="132.582px" viewBox="0 0 145.066 132.582" enable-background="new 0 0 145.066 132.582"
	 xml:space="preserve">
<g>
	<g>
		<path fill="#FFFFFF" d="M73.945,19.804c0-1.407-1.132-2.555-2.54-2.555c-14.731,0-26.709,11.98-26.709,26.712
			c0,1.407,1.146,2.555,2.551,2.555c1.411,0,2.555-1.147,2.555-2.555c0-11.915,9.688-21.604,21.604-21.604
			C72.813,22.357,73.945,21.223,73.945,19.804L73.945,19.804z"/>
		<path fill="#FFFFFF" d="M33.985,43.961c0,8.755,2.826,17.025,8.185,23.938c0.021,0.024,0.048,0.063,0.072,0.102
			c11.17,15.49,8.394,22.863,8.394,22.875c-0.6,1.271-0.05,2.789,1.234,3.389c0.348,0.162,0.708,0.25,1.067,0.236
			c0.958,0,1.88-0.535,2.316-1.469c0.463-0.973,4.108-10.102-9.004-28.21c-0.063-0.073-0.123-0.149-0.188-0.222
			c-4.566-5.965-6.972-13.103-6.972-20.638c0-18.741,15.24-33.997,33.982-33.997c18.729,0,33.983,15.256,33.983,33.997
			c0,7.56-2.429,14.72-7.072,20.748c-13.113,18.121-9.314,27.35-8.842,28.346c0.601,1.243,2.066,1.756,3.325,1.194
			s1.83-2.067,1.296-3.338c-0.024-0.076-2.952-7.597,8.318-23.149c5.279-6.875,8.067-15.106,8.067-23.801
			c0-21.556-17.531-39.09-39.078-39.09C51.519,4.872,33.985,22.406,33.985,43.961L33.985,43.961z"/>
		<path fill="#FFFFFF" d="M95.84,104.326v-2.168c0-3.463-2.813-6.266-6.275-6.266H55.19c-3.448,0-6.26,2.803-6.26,6.266v2.168
			c0,3.447,2.812,6.262,6.26,6.262h34.387C93.025,110.587,95.84,107.773,95.84,104.326L95.84,104.326z M54.034,104.326v-2.168
			c0-0.646,0.521-1.172,1.155-1.172h34.387c0.635,0,1.156,0.523,1.156,1.172v2.168c0,0.646-0.521,1.17-1.156,1.17H55.19
			C54.557,105.496,54.034,104.973,54.034,104.326L54.034,104.326z"/>
		<path fill="#FFFFFF" d="M59.325,114.46c-1.404,0-2.552,1.146-2.552,2.556v6.733c0,0.998,0.586,1.905,1.492,2.317l13.75,6.273
			c0.334,0.15,0.698,0.238,1.06,0.238c0.374,0,0.745-0.088,1.085-0.25l13.783-6.5c0.896-0.424,1.457-1.32,1.457-2.316v-6.498
			c0-1.408-1.133-2.543-2.553-2.543c-1.407,0-2.541,1.135-2.541,2.543v4.893l-11.259,5.306l-11.17-5.092v-5.104
			C61.88,115.607,60.733,114.46,59.325,114.46L59.325,114.46z"/>
		<g>
			<path fill="#FFFFFF" d="M132.49,90.041c0.834-1.119,0.598-2.729-0.535-3.563l-17.312-12.752
				c-1.134-0.834-2.729-0.599-3.562,0.535c-0.835,1.133-0.6,2.729,0.534,3.563l17.311,12.764c0.448,0.338,0.982,0.5,1.508,0.5
				C131.219,91.085,131.992,90.727,132.49,90.041L132.49,90.041z"/>
			<path fill="#FFFFFF" d="M31.108,18.47c0.459,0.337,0.994,0.499,1.519,0.499c0.785,0,1.56-0.36,2.057-1.033
				c0.837-1.134,0.597-2.727-0.534-3.574L16.45,1.323c-1.132-0.835-2.726-0.597-3.562,0.534c-0.85,1.137-0.601,2.741,0.534,3.575
				L31.108,18.47z"/>
			<path fill="#FFFFFF" d="M31.919,72.842L13.425,86.479c-1.135,0.834-1.371,2.44-0.534,3.563c0.498,0.688,1.269,1.047,2.056,1.047
				c0.522,0,1.059-0.162,1.506-0.5l18.492-13.635c1.133-0.836,1.385-2.43,0.536-3.563C34.645,72.257,33.052,72.01,31.919,72.842
				L31.919,72.842z"/>
			<path fill="#FFFFFF" d="M112.377,13.526c-1.133,0.836-1.369,2.43-0.534,3.563c0.497,0.685,1.271,1.047,2.055,1.047
				c0.523,0,1.06-0.174,1.507-0.5l16.553-12.203c1.133-0.834,1.382-2.438,0.535-3.561c-0.835-1.137-2.43-1.384-3.563-0.549
				L112.377,13.526z"/>
		</g>
		<path fill="#FFFFFF" d="M142.516,43.402h-19.502c-1.422,0-2.555,1.146-2.555,2.552c0,1.407,1.133,2.555,2.555,2.555h19.502
			c1.405,0,2.552-1.147,2.552-2.555C145.067,44.548,143.922,43.402,142.516,43.402L142.516,43.402z"/>
		<path fill="#FFFFFF" d="M25.23,45.954c0-1.405-1.132-2.552-2.556-2.552H2.554C1.144,43.402,0,44.548,0,45.954
			c0,1.407,1.145,2.555,2.555,2.555h20.121C24.086,48.508,25.23,47.361,25.23,45.954L25.23,45.954z"/>
	</g>
</g>
</svg>
