<?xml version="1.0" encoding="utf-8"?>
<!-- Generator: Adobe Illustrator 15.1.0, SVG Export Plug-In . SVG Version: 6.00 Build 0)  -->
<!DOCTYPE svg PUBLIC "-//W3C//DTD SVG 1.1//EN" "http://www.w3.org/Graphics/SVG/1.1/DTD/svg11.dtd">
<svg version="1.1" id="Layer_1" xmlns="http://www.w3.org/2000/svg" xmlns:xlink="http://www.w3.org/1999/xlink" x="0px" y="0px"
	 width="136.58px" height="120.796px" viewBox="0 0 136.58 120.796" enable-background="new 0 0 136.58 120.796"
	 xml:space="preserve">
<g>
	<g>
		<g>
			<path fill="#FFFFFF" d="M132.651,66.128c6.925-6.875,4.795-20.83-7.185-20.83l-31.554,0.025
				c1.205-6.67,2.947-17.752,2.873-18.778c-0.666-9.9-6.977-21.958-7.232-22.445c-1.154-2.154-6.978-5.053-12.826-3.796
				c-7.543,1.617-8.336,6.439-8.287,7.773c0,0,0.308,13.186,0.359,16.7c-3.617,7.927-16.085,28.808-19.854,30.397
				c-0.924-0.538-1.924-0.82-3.003-0.82H6.105C2.719,54.355,0,57.075,0,60.46v55.051c0.23,2.977,2.771,5.285,5.746,5.285h35.785
				c3.156,0,5.746-2.566,5.746-5.746v-1.822c0,0,1.334-0.104,1.924,0.281c2.31,1.463,5.157,3.311,8.851,3.311h53.409
				c19.958,0,17.829-17.727,16.008-20.138c3.36-3.669,5.438-10.158,2.593-15.263C132.267,79.083,136.114,72.722,132.651,66.128
				L132.651,66.128z M40.301,115.05H5.72V60.101h34.581V115.05z M123.339,65.667l-0.309,1.358
				c9.185,2.616,4.283,13.211-2.309,13.903l-0.334,1.357c8.824,2.232,4.616,13.16-2.283,13.904l-0.332,1.359
				c7.207,1.18,5.463,13.469-5.438,13.469l-54.333,0.025c-3.822,0-7.311-4.388-10.133-4.388h-2.463V64.384
				c3.053-1.924,6.823-4.386,8.928-6.155c3.95-3.386,20.162-29.577,20.162-32.862c0-3.283-0.333-17.469-0.333-17.469
				s3.155-4.104,10.261-1.104c0,0,5.979,11.211,6.594,20.138c0,0-2.691,18.368-4.131,24.14h37.633
				C133.778,51.097,132.009,64.308,123.339,65.667L123.339,65.667z"/>
		</g>
	</g>
</g>
</svg>
