<?xml version="1.0" encoding="UTF-8"?>
<!-- Generator: Adobe Illustrator 15.1.0, SVG Export Plug-In . SVG Version: 6.00 Build 0)  -->
<!DOCTYPE svg PUBLIC "-//W3C//DTD SVG 1.1//EN" "http://www.w3.org/Graphics/SVG/1.1/DTD/svg11.dtd">
<svg version="1.1" id="Layer_1" xmlns="http://www.w3.org/2000/svg" xmlns:xlink="http://www.w3.org/1999/xlink" x="0px" y="0px" width="51.552px" height="59.988px" viewBox="0 0 51.552 59.988" enable-background="new 0 0 51.552 59.988" xml:space="preserve">
<g>
	<path fill="#FFFFFF" d="M34.678,32.806c-0.518,0-0.937,0.421-0.937,0.94v16.87H1.875V9.374h10.31c0.518,0,0.938-0.419,0.938-0.935   c0-0.521-0.42-0.939-0.938-0.939H1.875V6.562c0-2.583,2.102-4.686,4.686-4.686h22.495c0.517,0,0.938-0.42,0.938-0.938   s-0.421-0.937-0.938-0.937H6.561C2.944,0.002,0,2.946,0,6.562v46.864c0,3.619,2.944,6.563,6.56,6.563h22.495   c3.619,0,6.561-2.943,6.561-6.563v-19.68C35.618,33.227,35.197,32.806,34.678,32.806L34.678,32.806z M29.056,58.113H6.561   c-2.583,0-4.686-2.1-4.686-4.688v-0.938h31.869v0.938C33.743,56.012,31.639,58.113,29.056,58.113L29.056,58.113z"/>
	<path fill="#FFFFFF" d="M19.683,54.365h-3.749c-0.517,0-0.938,0.418-0.938,0.937s0.421,0.937,0.938,0.937h3.749   c0.518,0,0.938-0.418,0.938-0.937S20.2,54.365,19.683,54.365L19.683,54.365z"/>
	<path fill="#FFFFFF" d="M11.522,4.024c-0.175,0.175-0.275,0.418-0.275,0.663c0,0.246,0.099,0.489,0.275,0.663   c0.174,0.176,0.416,0.275,0.663,0.275s0.489-0.099,0.663-0.275c0.175-0.174,0.275-0.415,0.275-0.663   c0-0.247-0.099-0.488-0.275-0.663c-0.174-0.174-0.416-0.273-0.663-0.273S11.696,3.85,11.522,4.024L11.522,4.024z"/>
	<path fill="#FFFFFF" d="M20.621,15.937h5.624c0.518,0,0.937-0.421,0.937-0.939s-0.419-0.937-0.937-0.937h-5.624   c-0.518,0-0.938,0.419-0.938,0.937S20.103,15.937,20.621,15.937L20.621,15.937z"/>
	<path fill="#FFFFFF" d="M44.99,14.062H29.994c-0.518,0-0.938,0.419-0.938,0.937s0.421,0.939,0.938,0.939h14.997   c0.518,0,0.937-0.421,0.937-0.939S45.508,14.062,44.99,14.062L44.99,14.062z"/>
	<path fill="#FFFFFF" d="M44.99,18.747h-5.624c-0.518,0-0.939,0.42-0.939,0.937c0,0.521,0.422,0.938,0.939,0.938h5.624   c0.518,0,0.937-0.417,0.937-0.938C45.927,19.167,45.508,18.747,44.99,18.747L44.99,18.747z"/>
	<path fill="#FFFFFF" d="M20.621,20.622h14.997c0.518,0,0.937-0.417,0.937-0.938c0-0.516-0.419-0.937-0.937-0.937H20.621   c-0.518,0-0.938,0.42-0.938,0.937C19.683,20.204,20.103,20.622,20.621,20.622L20.621,20.622z"/>
	<path fill="#FFFFFF" d="M44.99,9.374H20.621c-0.518,0-0.938,0.421-0.938,0.937c0,0.518,0.42,0.938,0.938,0.938h24.37   c0.518,0,0.937-0.421,0.937-0.938C45.927,9.795,45.508,9.374,44.99,9.374L44.99,9.374z"/>
	<g>
		<path fill="#FFFFFF" d="M44.99,23.435H20.621c-0.518,0-0.938,0.419-0.938,0.936c0,0.519,0.42,0.938,0.938,0.938h24.37    c0.518,0,0.937-0.42,0.937-0.938C45.927,23.853,45.508,23.435,44.99,23.435L44.99,23.435z"/>
		<path fill="#FFFFFF" d="M44.99,3.751H20.621c-3.618,0-6.561,2.944-6.561,6.56V24.37c0,3.3,2.448,6.038,5.624,6.495v3.428    c0,0.763,0.455,1.44,1.158,1.731c0.233,0.097,0.478,0.145,0.721,0.145c0.487,0,0.964-0.19,1.322-0.55l4.686-4.687h17.42    c3.619,0,6.561-2.943,6.561-6.562V10.311C51.551,6.695,48.608,3.751,44.99,3.751L44.99,3.751z M49.676,24.371    c0,2.584-2.102,4.688-4.686,4.688H27.181c-0.249,0-0.487,0.098-0.662,0.274l-4.961,4.96v-4.297c0-0.518-0.418-0.937-0.937-0.937    c-2.583,0-4.687-2.102-4.687-4.688V10.312c0-2.583,2.102-4.686,4.687-4.686h24.37c2.583,0,4.686,2.103,4.686,4.686L49.676,24.371    L49.676,24.371z"/>
	</g>
</g>
</svg>