<?xml version="1.0" encoding="UTF-8"?>
<!-- Generator: Adobe Illustrator 15.1.0, SVG Export Plug-In . SVG Version: 6.00 Build 0)  -->
<!DOCTYPE svg PUBLIC "-//W3C//DTD SVG 1.1//EN" "http://www.w3.org/Graphics/SVG/1.1/DTD/svg11.dtd">
<svg version="1.1" id="Layer_1" xmlns="http://www.w3.org/2000/svg" xmlns:xlink="http://www.w3.org/1999/xlink" x="0px" y="0px" width="53.605px" height="53.448px" viewBox="0 0 53.605 53.448" enable-background="new 0 0 53.605 53.448" xml:space="preserve">
<g>
	<g>
		<path fill="#FFFFFF" d="M50.775,22.795c-0.598,0-1.082,0.486-1.082,1.081v22.997c0,1.642-1.33,2.977-2.971,2.977H5.13    c-1.635,0-2.971-1.335-2.971-2.977V16.034c0-1.642,1.335-2.979,2.971-2.979h43.231L25.929,35.532l-4.941-4.945v-0.004    L9.631,19.206c-0.423-0.419-1.106-0.419-1.525,0c-0.427,0.425-0.427,1.109,0,1.534L18.7,31.35L8.275,41.788    c-0.42,0.419-0.42,1.107,0,1.528c0.213,0.215,0.487,0.316,0.766,0.316c0.274,0,0.552-0.102,0.763-0.316l10.417-10.436l4.941,4.945    c0.212,0.21,0.486,0.316,0.766,0.316c0.275,0,0.547-0.106,0.762-0.316l5.212-5.227L42.604,43.32    c0.212,0.21,0.486,0.312,0.764,0.312c0.276,0,0.55-0.102,0.762-0.312c0.423-0.427,0.423-1.11,0-1.533L33.43,31.071l17.687-17.716    c0.425-0.418,0.425-1.107,0-1.53L39.631,0.319c-0.421-0.426-1.104-0.426-1.528,0c-0.422,0.421-0.422,1.108,0,1.53l9.032,9.044    H5.13C2.302,10.891,0,13.198,0,16.034v30.838c0,2.835,2.302,5.139,5.13,5.139h41.593c2.829,0,5.134-2.307,5.134-5.139V23.877    C51.854,23.281,51.372,22.795,50.775,22.795L50.775,22.795z"/>
	</g>
</g>
</svg>