<?xml version="1.0" encoding="utf-8"?>
<!-- Generator: Adobe Illustrator 15.1.0, SVG Export Plug-In . SVG Version: 6.00 Build 0)  -->
<!DOCTYPE svg PUBLIC "-//W3C//DTD SVG 1.1//EN" "http://www.w3.org/Graphics/SVG/1.1/DTD/svg11.dtd">
<svg version="1.1" id="Layer_1" xmlns="http://www.w3.org/2000/svg" xmlns:xlink="http://www.w3.org/1999/xlink" x="0px" y="0px"
	 width="164.579px" height="112.563px" viewBox="0 0 164.579 112.563" enable-background="new 0 0 164.579 112.563"
	 xml:space="preserve">
<g>
	<g>
		<g>
			<g>
				<path fill="#FFFFFF" d="M158.804,0H5.775C2.59,0,0,2.59,0,5.775v89.434c0,3.183,2.59,5.771,5.775,5.771H66.5v5.811H35.13
					c-1.595,0-2.889,1.293-2.889,2.889c0,1.595,1.293,2.886,2.889,2.886h94.921c1.595,0,2.887-1.291,2.887-2.886
					c0-1.596-1.292-2.889-2.887-2.889h-31.76v-5.811h60.512c3.186,0,5.775-2.591,5.775-5.771V5.775
					C164.579,2.59,161.989,0,158.804,0L158.804,0z M92.516,106.789H72.274v-5.811h20.242V106.789z M133.984,95.207l-62.51-62.514
					c-1.128-1.125-2.957-1.125-4.083,0c-1.128,1.13-1.128,2.957,0,4.084l58.427,58.428H5.775V5.775h30.611L55.841,25.23
					c0.564,0.564,1.303,0.848,2.043,0.848c0.738,0,1.477-0.281,2.041-0.848c1.128-1.128,1.128-2.955,0-4.083L44.552,5.775h114.253
					v89.434L133.984,95.207L133.984,95.207z"/>
			</g>
			<path fill="#FFFFFF" d="M77.868,92.455h8.843c1.595,0,2.887-1.294,2.887-2.889c0-1.596-1.292-2.889-2.887-2.889h-8.843
				c-1.595,0-2.887,1.293-2.887,2.889C74.981,91.161,76.273,92.455,77.868,92.455L77.868,92.455z"/>
		</g>
		<g>
			<path fill="#FFFFFF" d="M107.627,26.363l-1.867-6.924l-1.891,6.924c-0.146,0.525-0.265,0.901-0.352,1.132
				c-0.087,0.229-0.236,0.434-0.453,0.612c-0.215,0.184-0.502,0.271-0.857,0.271c-0.289,0-0.526-0.054-0.713-0.16
				c-0.188-0.108-0.338-0.261-0.453-0.457c-0.117-0.197-0.211-0.432-0.285-0.701c-0.073-0.271-0.139-0.521-0.196-0.752l-1.921-7.773
				c-0.116-0.451-0.174-0.797-0.174-1.031c0-0.299,0.104-0.551,0.316-0.756c0.209-0.205,0.469-0.31,0.778-0.31
				c0.425,0,0.711,0.139,0.858,0.409c0.146,0.273,0.274,0.67,0.387,1.189l1.512,6.74l1.693-6.309
				c0.125-0.482,0.238-0.852,0.339-1.104c0.101-0.254,0.263-0.471,0.487-0.652c0.226-0.185,0.533-0.276,0.92-0.276
				c0.396,0,0.701,0.099,0.92,0.288c0.218,0.191,0.367,0.4,0.451,0.625c0.084,0.229,0.197,0.601,0.338,1.119l1.711,6.309l1.513-6.74
				c0.073-0.354,0.144-0.627,0.208-0.826s0.18-0.379,0.338-0.536c0.161-0.157,0.395-0.236,0.697-0.236s0.563,0.104,0.775,0.306
				c0.213,0.199,0.318,0.454,0.318,0.76c0,0.215-0.059,0.559-0.173,1.031l-1.921,7.773c-0.131,0.524-0.24,0.909-0.327,1.153
				s-0.233,0.458-0.44,0.642c-0.209,0.186-0.5,0.275-0.879,0.275c-0.355,0-0.644-0.089-0.856-0.27
				c-0.216-0.178-0.365-0.379-0.449-0.602C107.897,27.286,107.78,26.904,107.627,26.363z"/>
			<path fill="#FFFFFF" d="M124.372,26.363l-1.867-6.924l-1.891,6.924c-0.148,0.525-0.265,0.901-0.351,1.132
				c-0.087,0.229-0.238,0.434-0.453,0.612c-0.215,0.184-0.502,0.271-0.858,0.271c-0.289,0-0.527-0.054-0.713-0.16
				c-0.188-0.108-0.337-0.261-0.453-0.457c-0.115-0.197-0.209-0.432-0.283-0.701c-0.073-0.271-0.139-0.521-0.196-0.752l-1.923-7.773
				c-0.114-0.451-0.174-0.797-0.174-1.031c0-0.299,0.105-0.551,0.315-0.756c0.209-0.205,0.47-0.31,0.78-0.31
				c0.425,0,0.711,0.139,0.857,0.409c0.146,0.273,0.274,0.67,0.387,1.189l1.512,6.74l1.693-6.309
				c0.127-0.482,0.24-0.852,0.338-1.104c0.101-0.254,0.264-0.471,0.488-0.652c0.226-0.185,0.533-0.276,0.922-0.276
				c0.395,0,0.701,0.099,0.918,0.288c0.217,0.191,0.369,0.4,0.453,0.625c0.082,0.229,0.195,0.601,0.338,1.119l1.709,6.309
				l1.512-6.74c0.072-0.354,0.143-0.627,0.208-0.826s0.178-0.379,0.339-0.536c0.16-0.157,0.393-0.236,0.697-0.236
				c0.304,0,0.563,0.104,0.775,0.306c0.213,0.199,0.318,0.454,0.318,0.76c0,0.215-0.059,0.559-0.173,1.031l-1.923,7.773
				c-0.131,0.524-0.239,0.909-0.326,1.153c-0.088,0.244-0.232,0.458-0.439,0.642c-0.209,0.186-0.5,0.275-0.88,0.275
				c-0.356,0-0.644-0.089-0.856-0.27c-0.217-0.178-0.365-0.379-0.449-0.602C124.642,27.286,124.523,26.904,124.372,26.363z"/>
			<path fill="#FFFFFF" d="M141.116,26.363l-1.867-6.924l-1.892,6.924c-0.147,0.525-0.265,0.901-0.351,1.132
				c-0.086,0.229-0.237,0.434-0.452,0.612c-0.216,0.184-0.501,0.271-0.858,0.271c-0.289,0-0.525-0.054-0.713-0.16
				c-0.188-0.108-0.337-0.261-0.453-0.457c-0.115-0.197-0.21-0.432-0.283-0.701c-0.074-0.271-0.14-0.521-0.197-0.752l-1.922-7.773
				c-0.114-0.451-0.174-0.797-0.174-1.031c0-0.299,0.104-0.551,0.315-0.756c0.209-0.205,0.47-0.31,0.78-0.31
				c0.425,0,0.711,0.139,0.857,0.409c0.146,0.273,0.274,0.67,0.387,1.189l1.512,6.74l1.693-6.309
				c0.125-0.482,0.237-0.852,0.338-1.104c0.101-0.254,0.264-0.471,0.488-0.652c0.227-0.186,0.532-0.276,0.922-0.276
				c0.395,0,0.699,0.099,0.918,0.288c0.217,0.191,0.369,0.4,0.453,0.625c0.084,0.229,0.196,0.601,0.338,1.119l1.709,6.309
				l1.512-6.74c0.074-0.354,0.144-0.627,0.209-0.826c0.066-0.199,0.179-0.379,0.339-0.536c0.159-0.157,0.394-0.236,0.696-0.236
				c0.305,0,0.563,0.104,0.774,0.306c0.214,0.199,0.319,0.454,0.319,0.76c0,0.215-0.059,0.559-0.174,1.031l-1.922,7.773
				c-0.131,0.524-0.24,0.909-0.328,1.153c-0.086,0.244-0.232,0.458-0.439,0.642c-0.208,0.186-0.5,0.275-0.879,0.275
				c-0.355,0-0.645-0.089-0.857-0.27c-0.215-0.178-0.365-0.379-0.449-0.602C141.385,27.286,141.268,26.904,141.116,26.363z"/>
		</g>
	</g>
</g>
</svg>
