<?xml version="1.0" encoding="utf-8"?>
<!-- Generator: Adobe Illustrator 15.1.0, SVG Export Plug-In . SVG Version: 6.00 Build 0)  -->
<!DOCTYPE svg PUBLIC "-//W3C//DTD SVG 1.1//EN" "http://www.w3.org/Graphics/SVG/1.1/DTD/svg11.dtd">
<svg version="1.1" id="Layer_1" xmlns="http://www.w3.org/2000/svg" xmlns:xlink="http://www.w3.org/1999/xlink" x="0px" y="0px"
	 width="139.439px" height="124.723px" viewBox="0 0 139.439 124.723" enable-background="new 0 0 139.439 124.723"
	 xml:space="preserve">
<g>
	<g>
		<g>
			<path fill="#FFFFFF" d="M30.76,0H6.093C2.733,0,0,2.734,0,6.097V30.76c0,3.361,2.733,6.097,6.093,6.097H30.76
				c3.36,0,6.096-2.733,6.096-6.097V6.097C36.854,2.734,34.119,0,30.76,0L30.76,0z M3.97,6.097c0-1.175,0.951-2.128,2.121-2.128
				H30.76c1.173,0,2.125,0.953,2.125,2.128V30.76c0,1.173-0.952,2.125-2.125,2.125H6.093c-1.17,0-2.121-0.952-2.121-2.125
				L3.97,6.097L3.97,6.097z"/>
			<path fill="#FFFFFF" d="M52.264,10.463h85.188c1.095,0,1.985-0.892,1.985-1.984c0-1.095-0.893-1.983-1.985-1.983H52.264
				c-1.097,0-1.986,0.891-1.986,1.983C50.277,9.572,51.169,10.463,52.264,10.463L52.264,10.463z"/>
			<path fill="#FFFFFF" d="M52.264,20.412h67.315c1.095,0,1.985-0.892,1.985-1.984c0-1.095-0.893-1.984-1.985-1.984H52.264
				c-1.097,0-1.986,0.892-1.986,1.984C50.277,19.521,51.169,20.412,52.264,20.412L52.264,20.412z"/>
			<path fill="#FFFFFF" d="M137.454,26.393H52.264c-1.097,0-1.986,0.892-1.986,1.984c0,1.095,0.892,1.984,1.986,1.984h85.188
				c1.095,0,1.985-0.891,1.985-1.984C139.439,27.284,138.549,26.393,137.454,26.393L137.454,26.393z"/>
			<path fill="#FFFFFF" d="M137.454,51.087H52.264c-1.097,0-1.986,0.891-1.986,1.983c0,1.094,0.892,1.985,1.986,1.985h85.188
				c1.095,0,1.985-0.892,1.985-1.985C139.438,51.978,138.549,51.087,137.454,51.087L137.454,51.087z"/>
			<path fill="#FFFFFF" d="M52.264,65.007h67.315c1.095,0,1.985-0.893,1.985-1.984c0-1.096-0.893-1.983-1.985-1.983H52.264
				c-1.097,0-1.986,0.89-1.986,1.983C50.277,64.115,51.169,65.007,52.264,65.007L52.264,65.007z"/>
			<path fill="#FFFFFF" d="M137.454,70.987H52.264c-1.097,0-1.986,0.892-1.986,1.984c0,1.095,0.892,1.984,1.986,1.984h85.188
				c1.095,0,1.985-0.892,1.985-1.984S138.549,70.987,137.454,70.987L137.454,70.987z"/>
			<path fill="#FFFFFF" d="M137.454,95.68H52.264c-1.097,0-1.986,0.892-1.986,1.985c0,1.093,0.892,1.985,1.986,1.985h85.188
				c1.095,0,1.985-0.893,1.985-1.985C139.438,96.572,138.549,95.68,137.454,95.68L137.454,95.68z"/>
			<path fill="#FFFFFF" d="M52.264,109.602h67.315c1.095,0,1.985-0.892,1.985-1.986c0-1.094-0.893-1.984-1.985-1.984H52.264
				c-1.097,0-1.986,0.893-1.986,1.984C50.277,108.711,51.169,109.602,52.264,109.602L52.264,109.602z"/>
			<path fill="#FFFFFF" d="M137.454,115.58H52.264c-1.097,0-1.986,0.892-1.986,1.983c0,1.096,0.892,1.984,1.986,1.984h85.188
				c1.095,0,1.985-0.892,1.985-1.984C139.439,116.471,138.549,115.58,137.454,115.58L137.454,115.58z"/>
		</g>
		<path fill="#FFFFFF" d="M7.973,26.882c-0.001,0.529,0.206,1.027,0.581,1.403c0.374,0.376,0.871,0.583,1.402,0.583
			c0.529,0,1.027-0.207,1.403-0.58l7.063-7.058l7.066,7.058c0.374,0.373,0.873,0.58,1.402,0.58s1.027-0.207,1.402-0.583
			c0.374-0.376,0.581-0.872,0.581-1.403c-0.001-0.53-0.209-1.027-0.584-1.402l-7.062-7.052l7.063-7.052
			c0.773-0.772,0.775-2.032,0.001-2.808c-0.375-0.376-0.873-0.582-1.402-0.582s-1.028,0.206-1.402,0.579l-7.066,7.057L11.36,8.566
			c-0.376-0.373-0.874-0.579-1.403-0.579c-0.53,0-1.027,0.206-1.402,0.582c-0.374,0.375-0.58,0.874-0.58,1.404
			s0.208,1.028,0.583,1.402l7.062,7.052l-7.062,7.052C8.181,25.854,7.973,26.351,7.973,26.882L7.973,26.882z"/>
		<path fill="#FFFFFF" d="M7.973,116.069c-0.001,0.531,0.206,1.03,0.581,1.405c0.374,0.375,0.871,0.582,1.402,0.582
			c0.529,0,1.027-0.205,1.403-0.58l7.063-7.057l7.066,7.057c0.374,0.375,0.873,0.58,1.402,0.58s1.027-0.207,1.402-0.582
			c0.774-0.774,0.772-2.034-0.003-2.808l-7.062-7.054l7.063-7.05c0.373-0.374,0.581-0.872,0.582-1.402
			c0-0.529-0.207-1.028-0.581-1.403c-0.375-0.376-0.873-0.582-1.402-0.582s-1.028,0.206-1.402,0.579l-7.066,7.057l-7.063-7.057
			c-0.376-0.373-0.874-0.579-1.404-0.579s-1.029,0.206-1.401,0.582c-0.375,0.375-0.582,0.874-0.581,1.403
			c0,0.53,0.208,1.027,0.583,1.402l7.062,7.05l-7.062,7.054C8.181,115.041,7.973,115.54,7.973,116.069L7.973,116.069z"/>
		<path fill="#FFFFFF" d="M30.76,44.594H6.093C2.733,44.594,0,47.329,0,50.688v24.664c0,3.36,2.733,6.097,6.093,6.097H30.76
			c3.36,0,6.096-2.734,6.096-6.097V50.688C36.854,47.329,34.119,44.594,30.76,44.594L30.76,44.594z M3.97,50.688
			c0-1.171,0.951-2.123,2.121-2.123H30.76c1.173,0,2.125,0.952,2.125,2.123v24.664c0,1.173-0.952,2.127-2.125,2.127H6.093
			c-1.17,0-2.121-0.954-2.121-2.127L3.97,50.688L3.97,50.688z"/>
		<path fill="#FFFFFF" d="M30.76,89.188H6.093C2.733,89.188,0,91.923,0,95.281v24.664c0,3.361,2.733,6.097,6.093,6.097H30.76
			c3.36,0,6.096-2.733,6.096-6.097V95.281C36.854,91.923,34.119,89.188,30.76,89.188L30.76,89.188z M3.97,95.281
			c0-1.171,0.951-2.124,2.121-2.124H30.76c1.173,0,2.125,0.953,2.125,2.124v24.664c0,1.174-0.952,2.126-2.125,2.126H6.093
			c-1.17,0-2.121-0.952-2.121-2.126L3.97,95.281L3.97,95.281z"/>
		<path fill="#FFFFFF" d="M13.524,72.985c0.377,0.438,0.925,0.688,1.502,0.688c0.036,0,0.073-0.001,0.111-0.002
			c0.606-0.033,1.179-0.354,1.523-0.858L28.558,55.48c0.3-0.438,0.412-0.966,0.313-1.485c-0.097-0.521-0.392-0.976-0.828-1.274
			c-0.334-0.229-0.721-0.349-1.122-0.349c-0.652,0-1.268,0.321-1.638,0.86l-10.437,15.21l-3.411-3.947
			c-0.378-0.438-0.929-0.688-1.504-0.688c-0.479,0-0.938,0.173-1.3,0.483c-0.826,0.714-0.92,1.971-0.202,2.8L13.524,72.985z"/>
	</g>
</g>
</svg>
