<?xml version="1.0" encoding="iso-8859-1"?>
<!-- Generator: Adobe Illustrator 16.0.0, SVG Export Plug-In . SVG Version: 6.00 Build 0)  -->
<!DOCTYPE svg PUBLIC "-//W3C//DTD SVG 1.1//EN" "http://www.w3.org/Graphics/SVG/1.1/DTD/svg11.dtd">
<svg version="1.1" id="Layer_1" xmlns="http://www.w3.org/2000/svg" xmlns:xlink="http://www.w3.org/1999/xlink" x="0px" y="0px" width="59.273px" height="36.035px" viewbox="0 0 59.273 36.035" style="enable-background:new 0 0 59.273 36.035;" xml:space="preserve">
<path style="fill:#FFFFFF;" d="M59.273,23.345c0-7.001-5.683-12.683-12.691-12.683c-1.504,0-2.945,0.275-4.279,0.763
	C40.761,4.881,34.902,0,27.891,0c-8.075,0-14.645,6.477-14.803,14.516c-0.713-0.147-1.457-0.228-2.211-0.228
	C4.871,14.288,0,19.152,0,25.162c0,4.915,3.266,9.061,7.742,10.409c0.896,0.297,1.856,0.464,2.862,0.464h36.614
	c1.116,0,2.193-0.218,3.18-0.589C55.537,33.832,59.273,29.023,59.273,23.345z"/>
<path style="fill:#D1ECFB;" d="M46.582,10.662c-1.504,0-2.945,0.275-4.279,0.763c-1.43-6.073-6.586-10.709-12.926-11.347v35.957
	h17.842c1.116,0,2.193-0.218,3.18-0.589c5.139-1.614,8.875-6.423,8.875-12.102C59.273,16.344,53.59,10.662,46.582,10.662z"/>
</svg>