<?xml version="1.0" encoding="iso-8859-1"?>
<!-- Generator: Adobe Illustrator 16.0.0, SVG Export Plug-In . SVG Version: 6.00 Build 0)  -->
<!DOCTYPE svg PUBLIC "-//W3C//DTD SVG 1.1//EN" "http://www.w3.org/Graphics/SVG/1.1/DTD/svg11.dtd">
<svg version="1.1" id="Layer_1" xmlns="http://www.w3.org/2000/svg" xmlns:xlink="http://www.w3.org/1999/xlink" x="0px" y="0px" width="89.983px" height="54.709px" viewbox="0 0 89.983 54.709" style="enable-background:new 0 0 89.983 54.709;" xml:space="preserve">
<path style="fill:#A6DAE9;" d="M89.983,35.443c0-10.628-8.627-19.258-19.266-19.258c-2.281,0-4.471,0.421-6.495,1.16
	C61.879,7.411,52.986,0,42.341,0C30.083,0,20.113,9.831,19.87,22.037c-1.087-0.223-2.212-0.344-3.358-0.344
	C7.393,21.693,0,29.079,0,38.199c0,7.464,4.961,13.76,11.75,15.805c1.366,0.449,2.818,0.705,4.346,0.705h55.589
	c1.694,0,3.325-0.329,4.829-0.895C84.315,51.365,89.983,44.064,89.983,35.443z"/>
<path style="fill:#8FC4D7;" d="M70.717,16.186c-2.281,0-4.471,0.421-6.495,1.16C61.879,7.411,52.986,0,42.341,0
	c-0.416,0-0.824,0.04-1.235,0.063v54.646h30.579c1.694,0,3.325-0.329,4.829-0.895c7.801-2.449,13.469-9.75,13.469-18.371
	C89.983,24.815,81.356,16.186,70.717,16.186z"/>
</svg>