<?xml version="1.0" encoding="iso-8859-1"?>
<!-- Generator: Adobe Illustrator 16.0.0, SVG Export Plug-In . SVG Version: 6.00 Build 0)  -->
<!DOCTYPE svg PUBLIC "-//W3C//DTD SVG 1.1//EN" "http://www.w3.org/Graphics/SVG/1.1/DTD/svg11.dtd">
<svg version="1.1" id="Layer_1" xmlns="http://www.w3.org/2000/svg" xmlns:xlink="http://www.w3.org/1999/xlink" x="0px" y="0px" width="150.069px" height="150.078px" viewbox="0 0 150.069 150.078" style="enable-background:new 0 0 150.069 150.078;" xml:space="preserve">
<g>
	<path style="fill:#217ca8;" d="M119.969,131.406l-4.41-8.065c2.527-2.127,4.848-4.414,6.98-6.845l7.571,4.613
		c1.818,1.102,4.181,0.523,5.3-1.296l8.004-13.146c1.1-1.82,0.521-4.192-1.287-5.294l-7.872-4.794
		c1.118-3.055,1.995-6.199,2.624-9.396l8.882,0.21c2.133,0.043,3.891-1.636,3.946-3.767l0.36-15.388
		c0.046-2.122-1.633-3.881-3.759-3.932l-9.204-0.216c-0.554-3.188-1.372-6.347-2.439-9.457l7.806-4.267
		c1.863-1.019,2.551-3.357,1.53-5.229l-7.379-13.503c-1.026-1.876-3.374-2.561-5.233-1.544l-8.074,4.413
		c-2.111-2.515-4.391-4.84-6.83-6.969l4.617-7.565c1.108-1.831,0.525-4.191-1.299-5.315l-13.154-8.001
		c-1.804-1.102-4.175-0.528-5.279,1.291l-4.797,7.876c-3.055-1.116-6.195-2.007-9.389-2.627l0.21-8.881
		c0.04-2.133-1.651-3.882-3.774-3.943L68.227,0.001c-2.117-0.052-3.885,1.637-3.935,3.762l-0.217,9.203
		c-3.175,0.561-6.336,1.372-9.445,2.441l-4.262-7.795c-1.026-1.877-3.366-2.56-5.236-1.539l-13.503,7.38
		c-1.873,1.024-2.559,3.363-1.532,5.241l4.407,8.063c-2.519,2.109-4.862,4.398-6.981,6.833l-7.576-4.612
		c-1.816-1.107-4.177-0.528-5.285,1.28L6.649,43.409c-1.104,1.811-0.53,4.188,1.291,5.297l7.868,4.79
		c-1.112,3.066-2.004,6.21-2.63,9.403l-8.886-0.2c-2.125-0.058-3.895,1.629-3.938,3.752l-0.352,15.4
		c-0.051,2.122,1.629,3.887,3.745,3.93l9.209,0.222c0.565,3.177,1.376,6.336,2.448,9.448l-7.809,4.268
		c-1.865,1.021-2.546,3.354-1.529,5.214l7.379,13.518c1.024,1.869,3.363,2.555,5.228,1.537l8.072-4.412
		c2.116,2.514,4.393,4.848,6.83,6.98l-4.605,7.572c-1.116,1.819-0.533,4.169,1.285,5.287l13.156,8.01
		c1.804,1.108,4.177,0.524,5.292-1.291l4.785-7.875c3.063,1.122,6.206,2.01,9.401,2.636l-0.212,8.888
		c-0.042,2.13,1.64,3.883,3.762,3.937l15.401,0.358c2.116,0.05,3.881-1.642,3.934-3.753l0.225-9.207
		c3.17-0.552,6.328-1.372,9.437-2.427l4.263,7.797c1.016,1.862,3.357,2.537,5.232,1.516l13.506-7.38
		C120.311,135.609,120.987,133.264,119.969,131.406z M51.251,88.04c-7.176-13.133-2.345-29.601,10.782-36.775
		c13.133-7.178,29.6-2.353,36.78,10.78c7.177,13.134,2.35,29.604-10.782,36.781C74.9,106.002,58.431,101.173,51.251,88.04z"/>
	<g>
		<path style="fill:#1b678b;" d="M75.085,125.087c-18.333,0-35.175-9.98-43.956-26.047c-6.41-11.729-7.869-25.25-4.108-38.075
			c3.761-12.824,12.288-23.415,24.012-29.822c7.351-4.018,15.635-6.141,23.959-6.141c18.325,0,35.165,9.979,43.945,26.044
			c13.232,24.211,4.301,54.673-19.909,67.906C91.684,122.966,83.405,125.087,75.085,125.087L75.085,125.087z M74.992,26.836
			c-8.017,0-15.998,2.047-23.079,5.916C40.619,38.925,32.404,49.128,28.781,61.48c-3.623,12.355-2.217,25.382,3.957,36.68
			c8.459,15.478,24.686,25.092,42.347,25.092c8.013,0,15.988-2.043,23.062-5.91c23.323-12.748,31.927-42.093,19.18-65.416
			C108.868,36.45,92.647,26.836,74.992,26.836L74.992,26.836z"/>
	</g>
	<path style="fill:#1b678b;" d="M109.278,56.325l-10.465,5.72c7.177,13.134,2.35,29.604-10.782,36.781
		c-13.131,7.176-29.6,2.347-36.78-10.786l-10.463,5.719c10.338,18.912,34.054,25.864,52.961,15.531
		C112.661,98.953,119.612,75.236,109.278,56.325z"/>
	<path style="fill:#1b678b;" d="M40.562,94l10.464-5.72c-7.177-13.134-2.35-29.604,10.782-36.781
		c13.131-7.176,29.6-2.347,36.78,10.786l10.463-5.719c-10.338-18.912-34.054-25.864-52.96-15.531
		C37.179,51.372,30.227,75.089,40.562,94z"/>
</g>
</svg>