<?xml version="1.0" encoding="iso-8859-1"?>
<!-- Generator: Adobe Illustrator 16.0.0, SVG Export Plug-In . SVG Version: 6.00 Build 0)  -->
<!DOCTYPE svg PUBLIC "-//W3C//DTD SVG 1.1//EN" "http://www.w3.org/Graphics/SVG/1.1/DTD/svg11.dtd">
<svg version="1.1" id="Layer_1" xmlns="http://www.w3.org/2000/svg" xmlns:xlink="http://www.w3.org/1999/xlink" x="0px" y="0px" width="116.883px" height="116.896px" viewbox="0 0 116.883 116.896" style="enable-background:new 0 0 116.883 116.896;" xml:space="preserve">
<g>
	<path style="fill:#217ca8;" d="M113.884,48.765h-7.172c-0.521-2.523-1.211-4.967-2.082-7.343l5.995-3.456
		c1.433-0.836,1.928-2.668,1.102-4.118l-6.01-10.404c-0.84-1.438-2.682-1.927-4.106-1.104l-6.229,3.6
		c-1.678-1.91-3.504-3.691-5.461-5.321l3.47-6c0.826-1.448,0.333-3.282-1.104-4.111L81.882,4.488
		c-1.435-0.815-3.269-0.33-4.106,1.11l-3.59,6.227c-2.393-0.821-4.861-1.438-7.394-1.873V3.009C66.792,1.353,65.451,0,63.783,0
		H51.774c-1.677,0-3.023,1.353-3.023,3.009v7.18c-2.509,0.504-4.961,1.198-7.334,2.069l-3.452-5.995
		c-0.838-1.444-2.674-1.929-4.127-1.1l-10.408,6.019c-1.432,0.817-1.918,2.66-1.092,4.1l3.598,6.235
		c-1.908,1.677-3.692,3.492-5.314,5.445l-6.001-3.464c-1.451-0.832-3.283-0.325-4.117,1.108l-6.02,10.401
		c-0.824,1.438-0.333,3.278,1.105,4.105l6.221,3.594c-0.806,2.387-1.431,4.857-1.862,7.39H3.013c-1.669,0-3.013,1.352-3.011,3.008
		L0,65.123c0,1.663,1.344,3.003,3.015,3.003h7.178c0.498,2.529,1.193,4.986,2.065,7.351l-6,3.461
		c-1.439,0.834-1.92,2.67-1.099,4.102l6.006,10.41c0.828,1.433,2.672,1.931,4.113,1.102l6.232-3.595
		c1.682,1.911,3.502,3.703,5.456,5.321l-3.471,6.012c-0.829,1.437-0.338,3.278,1.097,4.101l10.42,6.007
		c1.437,0.832,3.273,0.341,4.094-1.093l3.6-6.226c2.392,0.808,4.851,1.434,7.39,1.86l-0.003,6.953
		c0.003,1.655,1.345,2.997,2.999,2.993l12.032,0.011c1.659,0,3.006-1.349,3.008-3.004v-7.184c2.508-0.509,4.961-1.203,7.337-2.07
		l3.468,5.992c0.832,1.446,2.654,1.926,4.1,1.102l10.417-6.012c1.429-0.823,1.927-2.67,1.093-4.109l-3.603-6.23
		c1.919-1.672,3.7-3.497,5.328-5.45l6.007,3.473c1.443,0.829,3.27,0.332,4.109-1.104l6.008-10.418
		c0.828-1.43,0.33-3.275-1.094-4.102l-6.232-3.597c0.813-2.378,1.434-4.854,1.876-7.376h6.938c1.655,0,2.997-1.352,2.999-3.015
		V51.769C116.891,50.107,115.535,48.765,113.884,48.765z M58.445,89.636c-17.221,0-31.184-13.97-31.184-31.188
		c0-17.221,13.963-31.188,31.184-31.188c17.225,0,31.182,13.967,31.182,31.188C89.627,75.666,75.67,89.636,58.445,89.636z"/>
	<path style="fill:#1b678b;" d="M58.443,20.478c-20.975,0-37.971,16.997-37.971,37.973c0,20.966,16.996,37.974,37.971,37.974
		c20.973,0,37.977-17.008,37.977-37.974C96.42,37.475,79.418,20.478,58.443,20.478z M58.445,89.636
		c-17.221,0-31.184-13.97-31.184-31.188c0-17.221,13.963-31.188,31.184-31.188c17.225,0,31.182,13.967,31.182,31.188
		C89.627,75.666,75.67,89.636,58.445,89.636z"/>
</g>
</svg>