<?xml version="1.0" encoding="iso-8859-1"?>
<!-- Generator: Adobe Illustrator 16.0.0, SVG Export Plug-In . SVG Version: 6.00 Build 0)  -->
<!DOCTYPE svg PUBLIC "-//W3C//DTD SVG 1.1//EN" "http://www.w3.org/Graphics/SVG/1.1/DTD/svg11.dtd">
<svg version="1.1" id="Layer_1" xmlns="http://www.w3.org/2000/svg" xmlns:xlink="http://www.w3.org/1999/xlink" x="0px" y="0px" width="278.48px" height="162.637px" viewbox="0 0 278.48 162.637" style="enable-background:new 0 0 278.48 162.637;" xml:space="preserve">
<path style="fill:#174F78;" d="M250.829,0H27.642c-3.234,0-5.844,2.618-5.844,5.85v135.995c0,3.22,2.609,5.838,5.844,5.838h223.188
	c3.235,0,5.857-2.618,5.857-5.838V5.85C256.687,2.618,254.064,0,250.829,0z"/>
<rect x="36.34" y="14.071" style="fill:#103754;" width="205.805" height="119.232"/>
<path style="fill:#FFFFFF;" d="M278.335,144.347h-96.271c-0.201,1.971-1.805,3.522-3.822,3.522h-77.997
	c-2.023,0-3.627-1.552-3.83-3.522H0.144C0.087,144.823,0,145.276,0,145.755v4.216c0,6.982,5.673,12.666,12.664,12.666h253.161
	c6.992,0,12.655-5.684,12.655-12.666v-4.216C278.48,145.276,278.403,144.823,278.335,144.347z"/>
<path style="fill:#C1E2DE;" d="M1.011,154.927c1.932,4.525,6.426,7.71,11.653,7.71h253.161c5.232,0,9.719-3.185,11.647-7.71H1.011z"/>
</svg>