<?xml version="1.0" encoding="windows-1252"?>
<!-- Generator: Adobe Illustrator 16.0.0, SVG Export Plug-In . SVG Version: 6.00 Build 0)  -->
<!DOCTYPE svg PUBLIC "-//W3C//DTD SVG 1.1//EN" "http://www.w3.org/Graphics/SVG/1.1/DTD/svg11.dtd">
<svg version="1.1" id="Layer_1" xmlns="http://www.w3.org/2000/svg" xmlns:xlink="http://www.w3.org/1999/xlink" x="0px" y="0px" width="141.954px" height="201.272px" viewbox="0 0 141.954 201.272" style="enable-background:new 0 0 141.954 201.272;" xml:space="preserve">
<g>
	<path style="fill:#FFFFFF;" d="M141.954,200.205c0,0.589-0.48,1.067-1.066,1.067H1.067c-0.592,0-1.067-0.479-1.067-1.067V1.067   C0,0.478,0.476,0,1.067,0h139.82c0.586,0,1.066,0.478,1.066,1.067V200.205z"/>
	<path style="fill:#C5E0EF;" d="M141.954,11.37V1.067c0-0.59-0.48-1.067-1.066-1.067H1.067C0.476,0,0,0.478,0,1.067V11.37H141.954z"/>
	<path style="fill:#C5E0EF;" d="M0,176.457v23.748c0,0.59,0.476,1.067,1.067,1.067h139.82c0.586,0,1.066-0.478,1.066-1.067v-23.748   H0z"/>
	<rect y="48.392" style="fill:#2898CD;" width="141.954" height="53.68"/>
	<g>
		<rect x="32.27" y="65.008" style="fill:#C5E0EF;" width="77.134" height="5.065"/>
		<g>
			<rect x="24.039" y="75.009" style="fill:#C5E0EF;" width="93.597" height="1.268"/>
			<rect x="20.242" y="79.601" style="fill:#C5E0EF;" width="101.188" height="1.267"/>
			<rect x="32.646" y="84.188" style="fill:#C5E0EF;" width="76.38" height="1.267"/>
		</g>
	</g>
	<rect x="51.985" y="22.708" style="fill:#C5E0EF;" width="37.98" height="8.974"/>
	<g>
		<rect x="18.103" y="36.688" style="fill:#8FC4D7;" width="18.794" height="1.267"/>
		<rect x="39.842" y="36.688" style="fill:#8FC4D7;" width="18.793" height="1.267"/>
		<rect x="61.578" y="36.688" style="fill:#8FC4D7;" width="18.798" height="1.267"/>
		<rect x="83.317" y="36.688" style="fill:#8FC4D7;" width="18.796" height="1.267"/>
		<rect x="105.052" y="36.688" style="fill:#8FC4D7;" width="18.801" height="1.267"/>
	</g>
	<g>
		<g>
			<g>
				<polygon style="fill:#FFFFFF;" points="134.622,77.921 133.7,77.251 135.168,75.233 133.7,73.213 134.622,72.543       136.576,75.233 134.622,77.921     "/>
			</g>
			<g>
				<polygon style="fill:#FFFFFF;" points="135.872,75.803 130.658,75.803 130.658,74.663 135.872,74.663 135.872,75.803     "/>
			</g>
		</g>
		<g>
			<g>
				<polygon style="fill:#FFFFFF;" points="7.335,77.922 5.378,75.233 7.335,72.543 8.257,73.213 6.788,75.233 8.256,77.251       7.335,77.922     "/>
			</g>
			<g>
				<polygon style="fill:#FFFFFF;" points="11.296,75.803 6.083,75.803 6.083,74.663 11.296,74.663 11.296,75.803     "/>
			</g>
		</g>
	</g>
	<g>
		<g>
			<rect x="11.916" y="109.422" style="fill:#C5E0EF;" width="34.388" height="34.389"/>
			<path style="fill:#8FC4D7;" d="M45.733,109.991v33.249H12.486v-33.249H45.733L45.733,109.991z M46.873,108.852H11.347v35.528     h35.526V108.852L46.873,108.852z"/>
		</g>
		<g>
			<g>
				<path style="fill:#8FC4D7;" d="M12.487,143.811c-0.146,0-0.292-0.057-0.403-0.168c-0.223-0.223-0.223-0.582,0-0.805      l33.246-33.246c0.223-0.223,0.583-0.223,0.806,0s0.223,0.583,0,0.806L12.89,143.643      C12.779,143.754,12.633,143.811,12.487,143.811L12.487,143.811z"/>
			</g>
			<g>
				<path style="fill:#8FC4D7;" d="M45.733,143.811c-0.146,0-0.292-0.057-0.403-0.168l-33.246-33.245      c-0.223-0.223-0.223-0.583,0-0.806s0.583-0.223,0.806,0l33.246,33.246c0.223,0.223,0.223,0.582,0,0.805      C46.025,143.754,45.879,143.811,45.733,143.811L45.733,143.811z"/>
			</g>
		</g>
	</g>
	<g>
		<g>
			<rect x="53.783" y="109.422" style="fill:#C5E0EF;" width="34.389" height="34.389"/>
			<path style="fill:#8FC4D7;" d="M87.602,109.991v33.249H54.354v-33.249H87.602L87.602,109.991z M88.741,108.852H53.214v35.528     h35.527V108.852L88.741,108.852z"/>
		</g>
		<g>
			<g>
				<path style="fill:#8FC4D7;" d="M54.353,143.811c-0.146,0-0.292-0.057-0.403-0.168c-0.223-0.223-0.223-0.582,0-0.805      l33.249-33.246c0.223-0.223,0.584-0.223,0.807,0s0.223,0.583,0,0.806l-33.25,33.245      C54.644,143.754,54.499,143.811,54.353,143.811L54.353,143.811z"/>
			</g>
			<g>
				<path style="fill:#8FC4D7;" d="M87.602,143.811c-0.146,0-0.292-0.057-0.403-0.168L53.95,110.397      c-0.223-0.223-0.223-0.583,0-0.806s0.583-0.223,0.806,0l33.25,33.246c0.223,0.223,0.223,0.582,0,0.805      C87.894,143.754,87.747,143.811,87.602,143.811L87.602,143.811z"/>
			</g>
		</g>
	</g>
	<g>
		<g>
			<rect x="95.652" y="109.422" style="fill:#C5E0EF;" width="34.388" height="34.389"/>
			<path style="fill:#8FC4D7;" d="M129.47,109.991v33.249H96.223v-33.249H129.47L129.47,109.991z M130.608,108.852H95.083v35.528     h35.525V108.852L130.608,108.852z"/>
		</g>
		<g>
			<g>
				<path style="fill:#8FC4D7;" d="M96.222,143.811c-0.146,0-0.291-0.057-0.402-0.168c-0.223-0.223-0.223-0.582,0-0.805      l33.248-33.246c0.223-0.223,0.582-0.223,0.805,0s0.223,0.583,0,0.806l-33.248,33.245      C96.513,143.754,96.368,143.811,96.222,143.811L96.222,143.811z"/>
			</g>
			<g>
				<path style="fill:#8FC4D7;" d="M129.47,143.811c-0.146,0-0.291-0.057-0.402-0.168l-33.248-33.245      c-0.223-0.223-0.223-0.583,0-0.806s0.582-0.223,0.805,0l33.248,33.246c0.223,0.223,0.223,0.582,0,0.805      C129.761,143.754,129.616,143.811,129.47,143.811L129.47,143.811z"/>
			</g>
		</g>
	</g>
	<g>
		<g>
			<path style="fill:none;" d="M96.221,143.24"/>
		</g>
		<g>
			<path style="fill:none;" d="M129.467,109.994"/>
		</g>
	</g>
	<g>
		<rect x="11.347" y="151.623" style="fill:#C5E0EF;" width="34.801" height="1.266"/>
		<rect x="11.347" y="154.915" style="fill:#C5E0EF;" width="31.666" height="1.266"/>
		<rect x="11.347" y="158.205" style="fill:#C5E0EF;" width="34.801" height="1.268"/>
		<rect x="11.347" y="161.496" style="fill:#C5E0EF;" width="27.773" height="1.267"/>
		<g>
			<rect x="11.347" y="148.489" style="fill:#2898CD;" width="18.796" height="1.267"/>
		</g>
	</g>
	<g>
		<rect x="11.347" y="187.771" style="fill:#8FC4D7;" width="34.801" height="1.264"/>
		<rect x="11.347" y="190.239" style="fill:#8FC4D7;" width="31.666" height="1.266"/>
		<g>
			<rect x="11.347" y="184.635" style="fill:#8FC4D7;" width="18.796" height="1.269"/>
		</g>
	</g>
	<g>
		<rect x="53.214" y="151.623" style="fill:#C5E0EF;" width="34.799" height="1.266"/>
		<rect x="53.214" y="154.915" style="fill:#C5E0EF;" width="31.666" height="1.266"/>
		<rect x="53.214" y="158.205" style="fill:#C5E0EF;" width="34.799" height="1.268"/>
		<rect x="53.214" y="161.496" style="fill:#C5E0EF;" width="27.773" height="1.267"/>
		<g>
			<rect x="53.214" y="148.489" style="fill:#2898CD;" width="18.796" height="1.267"/>
		</g>
	</g>
	<g>
		<rect x="95.079" y="151.623" style="fill:#C5E0EF;" width="34.802" height="1.266"/>
		<rect x="95.079" y="154.915" style="fill:#C5E0EF;" width="31.669" height="1.266"/>
		<rect x="95.079" y="158.205" style="fill:#C5E0EF;" width="34.802" height="1.268"/>
		<rect x="95.079" y="161.496" style="fill:#C5E0EF;" width="27.775" height="1.267"/>
		<g>
			<rect x="95.079" y="148.489" style="fill:#2898CD;" width="18.797" height="1.267"/>
		</g>
	</g>
	<path style="fill:#8FC4D7;" d="M130.608,188.072c0,1.625-1.316,2.943-2.945,2.943c-1.625,0-2.942-1.318-2.942-2.943   c0-1.627,1.317-2.943,2.942-2.943C129.292,185.129,130.608,186.445,130.608,188.072z"/>
	<circle style="fill:#8FC4D7;" cx="120.069" cy="188.072" r="2.943"/>
	<circle style="fill:#8FC4D7;" cx="112.473" cy="188.072" r="2.943"/>
	<circle style="fill:#B1BE46;" cx="16.519" cy="5.583" r="1.82"/>
	<circle style="fill:#FFC907;" cx="10.577" cy="5.583" r="1.818"/>
	<circle style="fill:#FD6120;" cx="4.636" cy="5.583" r="1.821"/>
</g>
</svg>